<svg xmlns="http://www.w3.org/2000/svg" viewBox="0 0 800 600">
  <!-- Background -->
  <rect width="800" height="600" fill="#f0f0f0"/>
  
  <!-- User Class -->
  <rect x="50" y="50" width="200" height="120" fill="#4CAF50" stroke="black" />
  <text x="150" y="70" font-family="Arial" font-size="14" fill="white" text-anchor="middle">User</text>
  <line x1="50" y1="80" x2="250" y2="80" stroke="black" />
  <text x="60" y="100" font-family="Arial" font-size="12">- userID: string</text>
  <text x="60" y="120" font-family="Arial" font-size="12">- preferences: List&lt;string&gt;</text>
  <line x1="50" y1="130" x2="250" y2="130" stroke="black" />
  <text x="60" y="150" font-family="Arial" font-size="12">+ updatePreferences()</text>
  <text x="60" y="170" font-family="Arial" font-size="12">+ getRecommendations()</text>
  
  <!-- Song Class -->
  <rect x="300" y="50" width="200" height="140" fill="#2196F3" stroke="black" />
  <text x="400" y="70" font-family="Arial" font-size="14" fill="white" text-anchor="middle">Song</text>
  <line x1="300" y1="80" x2="500" y2="80" stroke="black" />
  <text x="310" y="100" font-family="Arial" font-size="12">- songID: string</text>
  <text x="310" y="120" font-family="Arial" font-size="12">- title: string</text>
  <text x="310" y="140" font-family="Arial" font-size="12">- artist: string</text>
  <text x="310" y="160" font-family="Arial" font-size="12">- features: Dict&lt;string, float&gt;</text>
  <line x1="300" y1="170" x2="500" y2="170" stroke="black" />
  <text x="310" y="190" font-family="Arial" font-size="12">+ getFeatures()</text>
  
  <!-- RecommendationEngine Class -->
  <rect x="550" y="50" width="200" height="140" fill="#FFC107" stroke="black" />
  <text x="650" y="70" font-family="Arial" font-size="14" fill="white" text-anchor="middle">RecommendationEngine</text>
  <line x1="550" y1="80" x2="750" y2="80" stroke="black" />
  <text x="560" y="100" font-family="Arial" font-size="12">- models: List&lt;Model&gt;</text>
  <line x1="550" y1="110" x2="750" y2="110" stroke="black" />
  <text x="560" y="130" font-family="Arial" font-size="12">+ generateRecommendations()</text>
  <text x="560" y="150" font-family="Arial" font-size="12">+ updateModels()</text>
  <text x="560" y="170" font-family="Arial" font-size="12">+ evaluatePerformance()</text>
  
  <!-- Model Abstract Class -->
  <rect x="300" y="250" width="200" height="120" fill="#FF5722" stroke="black" />
  <text x="400" y="270" font-family="Arial" font-size="14" font-style="italic" fill="white" text-anchor="middle">Model</text>
  <line x1="300" y1="280" x2="500" y2="280" stroke="black" />
  <text x="310" y="300" font-family="Arial" font-size="12">- modelID: string</text>
  <text x="310" y="320" font-family="Arial" font-size="12">- parameters: Dict&lt;string, any&gt;</text>
  <line x1="300" y1="330" x2="500" y2="330" stroke="black" />
  <text x="310" y="350" font-family="Arial" font-size="12" font-style="italic">+ train()</text>
  <text x="310" y="370" font-family="Arial" font-size="12" font-style="italic">+ predict()</text>
  
  <!-- Specific Model Classes -->
  <rect x="50" y="400" width="200" height="80" fill="#9C27B0" stroke="black" />
  <text x="150" y="420" font-family="Arial" font-size="14" fill="white" text-anchor="middle">CollaborativeFiltering</text>
  <line x1="50" y1="430" x2="250" y2="430" stroke="black" />
  <text x="60" y="450" font-family="Arial" font-size="12">+ train()</text>
  <text x="60" y="470" font-family="Arial" font-size="12">+ predict()</text>
  
  <rect x="300" y="400" width="200" height="80" fill="#009688" stroke="black" />
  <text x="400" y="420" font-family="Arial" font-size="14" fill="white" text-anchor="middle">ContentBasedFiltering</text>
  <line x1="300" y1="430" x2="500" y2="430" stroke="black" />
  <text x="310" y="450" font-family="Arial" font-size="12">+ train()</text>
  <text x="310" y="470" font-family="Arial" font-size="12">+ predict()</text>
  
  <rect x="550" y="400" width="200" height="80" fill="#607D8B" stroke="black" />
  <text x="650" y="420" font-family="Arial" font-size="14" fill="white" text-anchor="middle">DeepLearning</text>
  <line x1="550" y1="430" x2="750" y2="430" stroke="black" />
  <text x="560" y="450" font-family="Arial" font-size="12">+ train()</text>
  <text x="560" y="470" font-family="Arial" font-size="12">+ predict()</text>
  
  <!-- Relationships -->
  <line x1="150" y1="170" x2="650" y2="50" stroke="black" stroke-width="1" stroke-dasharray="5,5" />
  <polygon points="650,45 640,50 650,55" fill="black" />
  
  <line x1="400" y1="190" x2="400" y2="250" stroke="black" stroke-width="1" />
  <polygon points="395,240 405,240 400,250" fill="black" />
  
  <line x1="650" y1="190" x2="400" y2="250" stroke="black" stroke-width="1" />
  <polygon points="395,245 405,245 400,250" fill="black" />
  
  <line x1="150" y1="400" x2="300" y2="370" stroke="black" stroke-width="1" />
  <polygon points="290,365 290,375 300,370" fill="black" />
  
  <line x1="400" y1="400" x2="400" y2="370" stroke="black" stroke-width="1" />
  <polygon points="395,380 405,380 400,370" fill="black" />
  
  <line x1="650" y1="400" x2="500" y2="370" stroke="black" stroke-width="1" />
  <polygon points="510,365 510,375 500,370" fill="black" />
</svg>
